<svg width="81" height="80" viewBox="0 0 81 80" fill="none" xmlns="http://www.w3.org/2000/svg">
<path d="M15.763 0.0484497C16.2056 0.0469229 16.6482 0.0453961 17.1042 0.043823C17.5937 0.0439481 18.0833 0.0441134 18.5728 0.0443146C19.0892 0.0432433 19.6056 0.0420251 20.122 0.0406712C21.5245 0.0375083 22.9269 0.0366696 24.3294 0.0364413C25.2066 0.0361867 26.0839 0.0354222 26.9611 0.0344734C30.0245 0.0311605 33.0878 0.0296996 36.1512 0.0299812C39.0014 0.0301959 41.8514 0.0264255 44.7016 0.0207653C47.1521 0.0160732 49.6025 0.0141644 52.053 0.0143928C53.5149 0.0144838 54.9768 0.0134788 56.4387 0.00967526C57.8156 0.00619079 59.1925 0.00619404 60.5694 0.00878625C61.0725 0.00915839 61.5755 0.00832824 62.0785 0.0061513C69.3638 -0.0233126 69.3638 -0.0233127 71.9553 1.88625C72.1671 2.0293 72.3789 2.17236 72.5972 2.31975C76.6709 5.17213 79.1529 8.85291 80.189 13.6998C80.3381 15.4167 80.3359 17.1247 80.328 18.8473C80.3294 19.3569 80.3314 19.8666 80.3337 20.3762C80.3385 21.7505 80.3367 23.1247 80.3333 24.4989C80.3305 25.943 80.3331 27.3871 80.3348 28.8311C80.3367 31.2553 80.3342 33.6795 80.329 36.1037C80.3232 38.899 80.3251 41.6942 80.331 44.4894C80.3359 46.8974 80.3365 49.3054 80.3337 51.7133C80.3321 53.148 80.3318 54.5826 80.3354 56.0173C80.3385 57.3667 80.3363 58.7159 80.3301 60.0652C80.3281 60.7913 80.3312 61.5173 80.3346 62.2433C80.3015 67.0483 79.0026 71.3236 75.7589 74.9826C71.375 79.0794 65.8916 80.0441 60.1238 79.9985C59.6225 79.9971 59.1211 79.996 58.6197 79.9952C57.2661 79.9919 55.9125 79.984 54.5589 79.9748C53.4248 79.9674 52.2906 79.9621 51.1565 79.9566C48.4783 79.9436 45.8001 79.9265 43.1219 79.9071C40.3688 79.8871 37.6157 79.8751 34.8625 79.8669C32.4901 79.8595 30.1177 79.8466 27.7453 79.8295C26.3322 79.8194 24.9192 79.8114 23.5061 79.8089C22.1758 79.8064 20.8457 79.797 19.5154 79.7825C18.8015 79.7764 18.0876 79.7771 17.3736 79.7782C14.4234 79.7374 12.0547 79.1805 9.30765 78.1374C8.83247 78.0098 8.3558 77.887 7.87571 77.7794C7.87571 77.5431 7.87571 77.3069 7.87571 77.0634C7.63944 77.0634 7.40316 77.0634 7.15973 77.0634C6.5476 76.4827 5.95207 75.8842 5.3698 75.2735C5.15568 75.0742 4.94156 74.8748 4.72095 74.6694C4.29584 74.1995 4.29584 74.1995 4.29584 73.4836C3.94143 73.3654 3.58703 73.2473 3.22188 73.1256C1.52027 70.7726 0.573858 68.1632 0.715973 65.2499C0.479702 65.1317 0.243431 65.0136 0 64.8919C0.030027 58.1081 0.0640798 51.3244 0.10293 44.5407C0.120875 41.3909 0.137502 38.2411 0.151026 35.0913C0.162816 32.3461 0.177078 29.6008 0.194311 26.8555C0.20335 25.4019 0.21115 23.9482 0.215989 22.4946C0.220584 21.1262 0.228483 19.7578 0.238914 18.3895C0.242159 17.8874 0.2442 17.3854 0.24494 16.8833C0.246132 16.1973 0.252098 15.5113 0.258297 14.8253C0.260277 14.4415 0.262256 14.0578 0.264296 13.6624C0.559716 10.3941 2.98144 6.89108 5.01181 4.39216C5.95153 3.76568 5.95153 3.76568 6.80175 3.3182C6.95265 3.15115 7.10355 2.98409 7.25902 2.81198C8.08956 2.04736 8.95683 1.72539 10.0013 1.30452C10.3737 1.15224 10.7461 0.999954 11.1297 0.843055C12.7387 0.242674 14.0383 0.051139 15.763 0.0484497ZM14.767 18.1774C12.033 21.1164 12.0461 24.4113 12.1715 28.243C12.344 33.5417 12.344 33.5417 11.0976 35.537C10.3257 36.1635 10.3257 36.1635 9.48665 36.6109C8.38478 37.2861 7.64745 37.7881 7.07024 38.9602C6.69947 40.15 6.69947 40.15 7.11498 41.1082C8.09929 42.2372 9.15236 43.2667 10.3816 44.1287C10.6179 44.1287 10.8542 44.1287 11.0976 44.1287C12.2004 46.8411 12.2815 49.1431 12.1939 52.0491C12.0357 57.1701 12.0357 57.1701 14.6816 61.3833C16.2427 62.7971 17.7487 63.5345 19.8683 63.5494C20.2817 63.5199 20.6952 63.4904 21.1212 63.4599C21.1212 61.9242 21.1212 60.3884 21.1212 58.8061C20.6044 58.6658 20.0875 58.5255 19.555 58.381C18.674 58.1419 18.674 58.1419 17.8993 57.7322C17.1666 56.3295 17.1138 55.1873 17.1638 53.6223C17.1726 53.1758 17.1813 52.7294 17.1904 52.2694C17.2153 51.3389 17.2433 50.4085 17.2743 49.4782C17.3223 46.7324 17.1969 44.3823 15.7514 41.9807C15.1666 41.489 14.5727 41.0072 13.9615 40.5488C13.8496 39.5643 13.8496 39.5643 13.9615 38.7589C14.2856 38.7154 14.2856 38.7154 14.6163 38.671C15.6551 38.3099 15.8561 37.9039 16.3723 36.9424C17.5404 34.4295 17.3663 31.8614 17.2729 29.1604C17.2549 28.4113 17.2395 27.6622 17.2257 26.913C17.2121 26.2381 17.1918 25.5633 17.1711 24.8885C17.1834 23.7234 17.1834 23.7234 17.5413 21.9335C18.7227 21.6972 19.9041 21.461 21.1212 21.2175C21.1212 19.6818 21.1212 18.146 21.1212 16.5637C18.4516 16.0298 16.8394 16.3918 14.767 18.1774ZM58.3518 16.2057C57.8725 16.6035 57.8725 16.6035 57.9589 17.6167C57.963 18.0445 57.9672 18.4722 57.9715 18.913C57.9747 19.3417 57.9779 19.7704 57.9813 20.2121C57.9854 20.5439 57.9896 20.8757 57.9938 21.2175C58.2181 21.2443 58.4424 21.2711 58.6735 21.2986C58.966 21.3457 59.2586 21.3928 59.56 21.4413C59.8508 21.4828 60.1415 21.5243 60.441 21.5671C61.2157 21.9335 61.2157 21.9335 61.6201 22.8873C61.9411 24.1174 61.9984 25.1032 61.9639 26.3706C61.9567 26.8014 61.9496 27.2321 61.9422 27.676C61.9204 28.5719 61.8971 29.4678 61.8723 30.3637C61.8197 33.7553 62.0267 36.5552 64.4376 39.1169C64.7947 39.4757 65.1526 39.8338 65.5116 40.1908C65.2589 40.4573 65.2589 40.4573 65.0012 40.7292C64.7783 40.9724 64.5554 41.2156 64.3257 41.4661C64.1056 41.7029 63.8855 41.9396 63.6587 42.1835C61.428 45.1593 61.8575 48.0888 61.9736 51.6611C62.0222 54.0892 61.9068 55.8855 60.8577 58.0901C60.2486 58.1677 60.2486 58.1677 59.6272 58.2468C58.4206 58.3091 58.4206 58.3091 57.9938 58.8061C57.9679 59.5888 57.9639 60.3723 57.9715 61.1554C57.9747 61.5841 57.9779 62.0128 57.9813 62.4545C57.9854 62.7863 57.9896 63.1181 57.9938 63.4599C60.3374 63.6513 61.8177 63.4206 63.7216 62.028C64.1056 61.7622 64.4895 61.4964 64.8851 61.2225C67.5153 58.5923 67.0944 55.0141 67.1001 51.5569C67.0998 51.1642 67.0998 51.1642 67.0995 50.7637C67.1008 49.9968 67.1106 49.2304 67.1211 48.4637C67.1218 48.0095 67.1224 47.5553 67.1231 47.0873C67.3315 45.7218 67.7072 45.3629 68.7334 44.4867C68.7334 44.2504 68.7334 44.0141 68.7334 43.7707C68.9697 43.7707 69.206 43.7707 69.4494 43.7707C71.2791 42.1179 71.2791 42.1179 72.1119 39.8776C71.8985 38.3528 71.3399 37.9435 70.1654 36.9689C69.5105 36.5043 68.8536 36.0491 68.1797 35.6125C67.6595 35.179 67.6595 35.179 67.3015 34.105C67.2639 33.2731 67.2459 32.4403 67.2386 31.6075C67.2303 31.1036 67.2216 30.5998 67.2127 30.0959C67.2002 29.3065 67.1897 28.5173 67.1848 27.7279C67.1588 24.1792 67.0284 21.2167 64.639 18.3984C62.6114 16.717 60.9857 16.2252 58.3518 16.2057ZM24.3431 24.7974C24.3072 25.7214 24.2943 26.6358 24.2968 27.5599C24.2961 27.8492 24.2955 28.1385 24.2949 28.4365C24.2933 29.3975 24.2943 30.3585 24.2955 31.3195C24.2953 31.9843 24.295 32.6491 24.2945 33.3139C24.294 34.7091 24.2948 36.1042 24.2964 37.4994C24.2985 39.292 24.2973 41.0846 24.2951 42.8772C24.2939 44.2505 24.2943 45.6239 24.2952 46.9972C24.2954 47.6584 24.2951 48.3195 24.2943 48.9807C24.2934 49.903 24.2948 50.8254 24.2968 51.7478C24.296 52.0238 24.2953 52.2997 24.2946 52.5841C24.1859 53.8304 24.1859 53.8304 24.7011 54.8683C25.4761 54.9037 26.2522 54.9147 27.028 54.913C27.4525 54.9139 27.8771 54.9149 28.3145 54.9158C29.3165 54.9872 29.3165 54.9872 29.7129 54.5103C29.7464 53.8841 29.7549 53.2565 29.7535 52.6294C29.7535 52.228 29.7535 51.8267 29.7535 51.4132C29.7516 50.9765 29.7498 50.5399 29.7479 50.09C29.7471 49.4233 29.7471 49.4233 29.7463 48.7431C29.7446 47.5596 29.7414 46.3761 29.7375 45.1926C29.7338 43.9856 29.7322 42.7787 29.7304 41.5717C29.7264 39.2021 29.7204 36.8326 29.7129 34.463C30.7393 34.9762 30.8042 35.7318 31.1553 36.7704C31.2455 37.0459 31.3357 37.3214 31.4287 37.6052C31.5251 37.8914 31.6214 38.1775 31.7207 38.4723C32.0309 39.3949 32.3377 40.3185 32.6439 41.2424C33.0424 42.4396 33.4426 43.6362 33.8451 44.8321C33.9445 45.1274 34.0439 45.4228 34.1463 45.7271C35.1959 48.8124 36.3794 51.8425 37.5886 54.8683C39.1244 54.8683 40.6601 54.8683 42.2424 54.8683C42.4067 54.3671 42.571 53.866 42.7402 53.3496C42.9621 52.6774 43.184 52.0053 43.4059 51.3331C43.5134 51.0046 43.6209 50.676 43.7317 50.3375C44.3778 48.3855 45.0876 46.477 45.8639 44.5732C46.2689 43.5459 46.5901 42.5044 46.8963 41.4438C47.4261 39.665 48.0456 37.9647 48.7813 36.2614C49.1052 35.4972 49.1052 35.4972 49.0442 34.463C49.3986 34.463 49.753 34.463 50.1181 34.463C50.1173 34.7134 50.1165 34.9637 50.1157 35.2217C50.1086 37.5765 50.1031 39.9312 50.0996 42.286C50.0977 43.4967 50.0952 44.7074 50.0911 45.9182C50.0865 47.3088 50.0848 48.6994 50.0832 50.09C50.0813 50.5266 50.0795 50.9633 50.0776 51.4132C50.0775 52.0152 50.0775 52.0152 50.0775 52.6294C50.0767 52.9847 50.0759 53.34 50.0751 53.7062C50.0277 54.4996 50.0277 54.4996 50.4761 54.8683C51.2511 54.9037 52.0273 54.9147 52.803 54.913C53.2276 54.9139 53.6521 54.9149 54.0895 54.9158C55.0915 54.9872 55.0915 54.9872 55.4879 54.5103C55.5239 53.5863 55.5367 52.6719 55.5343 51.7478C55.5349 51.4585 55.5355 51.1692 55.5362 50.8712C55.5377 49.9102 55.5367 48.9492 55.5355 47.9882C55.5357 47.3234 55.5361 46.6586 55.5365 45.9938C55.537 44.5986 55.5363 43.2034 55.5346 41.8082C55.5326 40.0156 55.5337 38.2231 55.5359 36.4305C55.5372 35.0571 55.5368 33.6838 55.5358 32.3105C55.5356 31.6493 55.5359 30.9882 55.5367 30.327C55.5376 29.4046 55.5363 28.4823 55.5343 27.5599C55.5353 27.1459 55.5353 27.1459 55.5364 26.7236C55.6451 25.4773 55.6451 25.4773 55.1299 24.4394C54.6231 24.4084 54.1148 24.4011 53.6071 24.4044C53.1485 24.4062 53.1485 24.4062 52.6807 24.4079C52.3593 24.4109 52.0378 24.4139 51.7067 24.417C51.3839 24.4186 51.0611 24.4203 50.7285 24.4219C49.9284 24.4262 49.1283 24.4324 48.3282 24.4394C47.3023 26.6575 46.4199 28.8965 45.6195 31.2048C45.5049 31.5326 45.3903 31.8603 45.2722 32.198C45.0318 32.8867 44.7921 33.5757 44.553 34.2648C44.1906 35.3086 43.8253 36.3514 43.4597 37.394C43.2248 38.068 42.9901 38.742 42.7556 39.4161C42.5945 39.8755 42.5945 39.8755 42.4301 40.3442C41.6726 42.5362 41.0389 44.749 40.4525 46.9926C39.4282 46.4804 39.4092 45.8942 39.0422 44.8206C38.9084 44.4334 38.7746 44.0461 38.6367 43.6472C38.4939 43.2251 38.3511 42.803 38.2039 42.3681C38.0556 41.9367 37.9074 41.5053 37.7546 41.0608C37.3599 39.9105 36.9674 38.7594 36.5761 37.608C36.1795 36.4432 35.7799 35.2794 35.3806 34.1155C32.9903 27.1411 32.9903 27.1411 32.6005 25.7659C32.4745 25.4463 32.3486 25.1267 32.2188 24.7974C31.2383 24.4705 30.6528 24.3934 29.643 24.3919C29.3573 24.3914 29.0717 24.3909 28.7774 24.3905C28.4806 24.3918 28.1839 24.3932 27.8782 24.3947C27.5787 24.3933 27.2792 24.3919 26.9707 24.3905C25.5434 24.2491 25.5434 24.2491 24.3431 24.7974Z" fill="black"/>
</svg>
